<?xml version="1.0" encoding="utf-8"?>
<!-- Generator: Adobe Illustrator 27.5.0, SVG Export Plug-In . SVG Version: 6.00 Build 0)  -->
<svg version="1.1" id="레이어_1" xmlns="http://www.w3.org/2000/svg" xmlns:xlink="http://www.w3.org/1999/xlink" x="0px"
	 y="0px" viewBox="0 0 193.31 28.46" style="enable-background:new 0 0 193.31 28.46;" xml:space="preserve">
<style type="text/css">
	.st0{fill:#FFFFFF;}
</style>
<g>
	<g>
		<path class="st0" d="M70.17,23.91h-1.27c-0.14,0-0.22-0.08-0.22-0.23v-6.54h-1.86c-0.05,0-0.1-0.02-0.15-0.06
			c-0.05-0.05-0.07-0.09-0.07-0.15v-1.14c0-0.05,0.02-0.1,0.07-0.14c0.04-0.04,0.1-0.06,0.15-0.06h1.86v-4.93
			c0-0.14,0.07-0.21,0.22-0.21h1.27c0.14,0,0.22,0.07,0.22,0.21v13.01C70.39,23.83,70.32,23.91,70.17,23.91"/>
		<path class="st0" d="M73.15,25.86H71.8c-0.13,0-0.2-0.07-0.2-0.21V10.4c0-0.14,0.07-0.21,0.22-0.21h1.34c0.14,0,0.2,0.07,0.2,0.21
			v15.25C73.36,25.79,73.29,25.86,73.15,25.86"/>
		<path class="st0" d="M88.99,20.1c-0.05,0.06-0.1,0.08-0.16,0.08h-5.88v5.31c0,0.15-0.07,0.23-0.22,0.23h-1.36
			c-0.15,0-0.22-0.08-0.22-0.23v-5.31h-5.92c-0.06,0-0.11-0.03-0.16-0.08c-0.04-0.05-0.06-0.11-0.06-0.17v-1.07
			c0-0.07,0.02-0.12,0.06-0.17c0.04-0.05,0.09-0.07,0.16-0.07h13.6c0.05,0,0.11,0.03,0.16,0.08c0.05,0.05,0.08,0.11,0.08,0.16v1.07
			C89.07,19.98,89.04,20.04,88.99,20.1"/>
		<path class="st0" d="M98,13.84c-0.05,0.05-0.1,0.08-0.17,0.08h-8.27c-0.06,0-0.12-0.03-0.17-0.08c-0.05-0.05-0.08-0.11-0.08-0.18
			v-0.92c0-0.06,0.03-0.11,0.09-0.17c0.06-0.06,0.12-0.09,0.18-0.09h8.26c0.06,0,0.12,0.03,0.17,0.08c0.04,0.06,0.07,0.12,0.07,0.18
			v0.94C98.07,13.73,98.05,13.79,98,13.84"/>
		<path class="st0" d="M95.91,11.73c-0.05,0.06-0.11,0.09-0.19,0.09h-4.08c-0.04,0-0.09-0.02-0.15-0.07
			c-0.06-0.04-0.09-0.11-0.09-0.2v-0.94c0-0.08,0.03-0.14,0.09-0.18c0.06-0.04,0.11-0.07,0.15-0.07h4.08c0.07,0,0.14,0.03,0.19,0.08
			c0.05,0.05,0.08,0.12,0.08,0.18v0.91C95.98,11.61,95.96,11.67,95.91,11.73"/>
		<path class="st0" d="M118.03,18.35c-0.05,0.06-0.1,0.08-0.15,0.08h-13.59c-0.06,0-0.11-0.03-0.16-0.08
			c-0.04-0.05-0.06-0.11-0.06-0.16v-1.07c0-0.07,0.02-0.13,0.06-0.18c0.04-0.05,0.09-0.08,0.16-0.08h5.37v-2.62
			c0-0.16,0.07-0.23,0.22-0.23h1.36c0.15,0,0.22,0.08,0.22,0.23v2.62h6.36c0.05,0,0.11,0.03,0.19,0.09
			c0.07,0.06,0.11,0.12,0.11,0.17v1.07C118.11,18.24,118.09,18.29,118.03,18.35"/>
		<path class="st0" d="M115.95,11.72c0,0.22-0.01,0.52-0.03,0.9c-0.02,0.38-0.05,0.77-0.08,1.17c-0.03,0.4-0.07,0.78-0.11,1.15
			c-0.04,0.36-0.08,0.63-0.12,0.81c-0.02,0.09-0.06,0.17-0.12,0.23c-0.06,0.06-0.13,0.09-0.21,0.08l-1.2-0.12
			c-0.15-0.01-0.22-0.13-0.19-0.35c0.03-0.19,0.06-0.42,0.09-0.7c0.03-0.28,0.06-0.57,0.08-0.86c0.02-0.29,0.04-0.58,0.05-0.85
			c0.02-0.28,0.02-0.49,0.02-0.66c0-0.15-0.03-0.25-0.1-0.29c-0.07-0.04-0.17-0.06-0.32-0.06h-7.25c-0.05,0-0.11-0.02-0.15-0.06
			c-0.05-0.04-0.08-0.08-0.08-0.14v-1.16c0-0.06,0.03-0.11,0.08-0.15c0.05-0.03,0.1-0.05,0.15-0.05h8.45c0.27,0,0.51,0.08,0.72,0.24
			C115.85,11.03,115.95,11.32,115.95,11.72"/>
		<path class="st0" d="M132.7,20.09c-0.05,0.06-0.1,0.09-0.15,0.09h-5.9v5.31c0,0.15-0.07,0.23-0.22,0.23h-1.36
			c-0.14,0-0.22-0.08-0.22-0.23v-5.31h-5.9c-0.06,0-0.11-0.03-0.16-0.09c-0.04-0.06-0.06-0.12-0.06-0.17v-1.07
			c0-0.07,0.02-0.12,0.06-0.17c0.04-0.05,0.09-0.08,0.16-0.08h13.6c0.05,0,0.1,0.03,0.15,0.08c0.05,0.05,0.08,0.11,0.08,0.17v1.07
			C132.78,19.97,132.76,20.03,132.7,20.09"/>
		<path class="st0" d="M147.89,20.1c-0.05,0.06-0.1,0.08-0.16,0.08h-5.89v5.31c0,0.15-0.07,0.23-0.22,0.23h-1.36
			c-0.15,0-0.22-0.08-0.22-0.23v-5.31h-5.92c-0.06,0-0.12-0.03-0.16-0.08c-0.04-0.05-0.06-0.11-0.06-0.17v-1.07
			c0-0.07,0.02-0.12,0.06-0.17c0.04-0.05,0.09-0.07,0.16-0.07h13.6c0.05,0,0.11,0.03,0.16,0.08c0.05,0.05,0.08,0.11,0.08,0.16v1.07
			C147.96,19.98,147.94,20.04,147.89,20.1"/>
		<path class="st0" d="M160.02,25.72c-0.05,0.05-0.1,0.08-0.15,0.08h-1.34c-0.06,0-0.12-0.02-0.16-0.08
			c-0.04-0.05-0.07-0.1-0.07-0.15v-3.74c0-0.12-0.02-0.2-0.06-0.23c-0.04-0.03-0.12-0.05-0.22-0.05h-7.06
			c-0.05,0-0.1-0.02-0.16-0.05c-0.05-0.04-0.08-0.08-0.08-0.14v-1.17c0-0.08,0.02-0.13,0.08-0.17c0.05-0.03,0.1-0.05,0.16-0.05h8.1
			c0.4,0,0.67,0.09,0.81,0.26c0.14,0.17,0.22,0.47,0.22,0.89v4.45C160.09,25.62,160.06,25.67,160.02,25.72"/>
		<path class="st0" d="M154.45,16.43c0,0.19-0.09,0.28-0.28,0.28h-2.75c-0.19,0-0.28-0.09-0.28-0.28v-1.66h3.31V16.43z
			 M156.16,10.82c-0.04-0.05-0.09-0.07-0.14-0.07h-1.38c-0.05,0-0.1,0.03-0.14,0.07c-0.04,0.05-0.06,0.1-0.06,0.16v2.26h-3.31V11
			c0-0.05-0.02-0.11-0.07-0.15c-0.05-0.04-0.1-0.07-0.15-0.07h-1.36c-0.05,0-0.1,0.02-0.14,0.07c-0.04,0.04-0.06,0.09-0.06,0.15
			v6.11c0,0.44,0.08,0.74,0.25,0.91c0.17,0.17,0.48,0.25,0.94,0.25h4.51c0.45,0,0.76-0.09,0.92-0.27c0.17-0.18,0.25-0.46,0.25-0.83
			v-6.18C156.23,10.93,156.21,10.87,156.16,10.82"/>
		<path class="st0" d="M162.37,15.5c-0.05,0.05-0.1,0.07-0.15,0.07h-2.12v3.37c0,0.14-0.07,0.21-0.21,0.21h-1.39
			c-0.13,0-0.2-0.08-0.2-0.23V10.4c0-0.14,0.07-0.21,0.2-0.21h1.39c0.14,0,0.21,0.07,0.21,0.21v3.58h2.12c0.05,0,0.1,0.02,0.15,0.06
			c0.05,0.04,0.07,0.09,0.07,0.14v1.17C162.44,15.4,162.42,15.45,162.37,15.5"/>
		<path class="st0" d="M103.26,15.5c-0.04,0.05-0.1,0.07-0.15,0.07h-2.12v3.37c0,0.14-0.07,0.21-0.2,0.21H99.4
			c-0.14,0-0.2-0.08-0.2-0.23V10.4c0-0.14,0.07-0.21,0.2-0.21h1.39c0.14,0,0.2,0.07,0.2,0.21v3.58h2.12c0.05,0,0.1,0.02,0.15,0.06
			c0.05,0.04,0.07,0.09,0.07,0.14v1.17C103.33,15.4,103.31,15.45,103.26,15.5"/>
		<path class="st0" d="M172.84,11.95c0-0.09-0.02-0.15-0.05-0.18c-0.03-0.03-0.09-0.04-0.17-0.04h-5.5c-0.09,0-0.15,0.01-0.18,0.04
			c-0.03,0.02-0.04,0.07-0.04,0.16v1.73c0,0.1,0.01,0.16,0.04,0.18c0.03,0.02,0.09,0.03,0.18,0.03h5.5c0.09,0,0.15-0.01,0.18-0.03
			c0.03-0.02,0.04-0.08,0.04-0.18V11.95z M174.32,15.13c-0.2,0.17-0.5,0.26-0.9,0.26h-7.09c-0.48,0-0.8-0.08-0.96-0.26
			c-0.16-0.17-0.24-0.47-0.24-0.9v-2.87c0-0.42,0.1-0.72,0.3-0.89c0.2-0.18,0.5-0.26,0.9-0.26h7.09c0.48,0,0.8,0.08,0.96,0.25
			c0.16,0.17,0.24,0.47,0.24,0.91v2.87C174.62,14.66,174.52,14.96,174.32,15.13 M176.84,18.03c-0.05,0.05-0.1,0.07-0.16,0.07h-5.9
			v1.24h2.89c0.43,0,0.71,0.07,0.85,0.21c0.14,0.14,0.21,0.39,0.21,0.76v1.88c0,0.39-0.07,0.64-0.21,0.78
			c-0.14,0.13-0.42,0.2-0.85,0.2h-6.6c-0.09,0-0.14,0.01-0.16,0.04c-0.02,0.03-0.03,0.08-0.03,0.17v0.53c0,0.1,0.01,0.16,0.03,0.17
			c0.02,0.02,0.08,0.02,0.17,0.02h7.79c0.05,0,0.1,0.02,0.16,0.06c0.05,0.04,0.08,0.1,0.08,0.17v1.07c0,0.05-0.03,0.1-0.08,0.15
			c-0.05,0.05-0.1,0.07-0.14,0.07h-8.73c-0.4,0-0.68-0.08-0.83-0.23c-0.14-0.15-0.22-0.41-0.22-0.76v-1.88
			c0-0.35,0.07-0.6,0.21-0.76c0.14-0.15,0.41-0.23,0.82-0.23h6.65c0.08,0,0.14-0.01,0.16-0.03c0.02-0.01,0.03-0.08,0.03-0.19v-0.44
			c0-0.12-0.01-0.2-0.03-0.22c-0.02-0.03-0.08-0.04-0.17-0.04h-7.48c-0.05,0-0.1-0.02-0.15-0.06c-0.05-0.04-0.07-0.09-0.07-0.14
			v-1.1c0-0.05,0.03-0.1,0.07-0.15c0.04-0.04,0.1-0.07,0.15-0.07h3.69V18.1h-5.9c-0.15,0-0.22-0.08-0.22-0.23v-1.02
			c0-0.06,0.02-0.13,0.06-0.18c0.04-0.05,0.1-0.08,0.16-0.08h13.6c0.05,0,0.1,0.03,0.16,0.09c0.05,0.06,0.08,0.12,0.08,0.17v1.02
			C176.92,17.92,176.89,17.98,176.84,18.03"/>
		<path class="st0" d="M191.75,17.23c-0.05,0.04-0.1,0.07-0.15,0.07h-2.04v4.09c0,0.14-0.07,0.21-0.2,0.21h-1.39
			c-0.14,0-0.2-0.07-0.2-0.21V10.4c0-0.14,0.07-0.21,0.2-0.21h1.39c0.13,0,0.2,0.07,0.2,0.21v5.31h2.04c0.05,0,0.1,0.02,0.15,0.06
			c0.05,0.04,0.07,0.09,0.07,0.15v1.15C191.81,17.13,191.8,17.18,191.75,17.23 M190.04,25.44c-0.04,0.03-0.1,0.05-0.16,0.05h-8.45
			c-0.47,0-0.79-0.09-0.95-0.26c-0.17-0.18-0.25-0.48-0.25-0.91v-3.15c0-0.06,0.03-0.11,0.07-0.16c0.04-0.05,0.1-0.08,0.17-0.08
			h1.34c0.06,0,0.12,0.03,0.17,0.08c0.05,0.05,0.08,0.1,0.08,0.16v2.47c0,0.11,0.02,0.18,0.06,0.21c0.04,0.03,0.11,0.05,0.22,0.05
			h7.54c0.05,0,0.11,0.02,0.16,0.06c0.05,0.04,0.08,0.09,0.08,0.14v1.19C190.11,25.35,190.09,25.4,190.04,25.44 M186.21,12.28
			c0,0.32-0.01,0.65-0.03,1c-0.02,0.35-0.04,0.7-0.08,1.05c-0.03,0.35-0.07,0.69-0.12,1.02c-0.05,0.32-0.1,0.62-0.17,0.88
			c-0.02,0.09-0.06,0.16-0.12,0.23c-0.06,0.06-0.12,0.09-0.19,0.08l-1.22-0.11c-0.13-0.01-0.19-0.12-0.15-0.31
			c0.04-0.21,0.08-0.46,0.12-0.75c0.04-0.29,0.08-0.58,0.11-0.88c0.03-0.3,0.05-0.58,0.07-0.84c0.02-0.27,0.03-0.47,0.03-0.63
			c0-0.16-0.04-0.25-0.11-0.29c-0.07-0.04-0.18-0.06-0.33-0.06h-4.92c-0.05,0-0.1-0.02-0.15-0.06c-0.05-0.04-0.08-0.08-0.08-0.14
			v-1.15c0-0.07,0.03-0.12,0.08-0.15c0.05-0.03,0.1-0.05,0.15-0.05h6.06c0.34,0,0.59,0.09,0.77,0.28
			C186.12,11.58,186.21,11.88,186.21,12.28 M177.96,18.03c0.47,0.02,0.94,0.03,1.42,0.03h1.47v-3.13c0-0.17,0.07-0.25,0.22-0.25
			h1.33c0.15,0,0.22,0.08,0.22,0.25v3.08c0.74-0.02,1.46-0.06,2.17-0.11c0.71-0.05,1.38-0.11,2.01-0.19c0.05-0.01,0.11,0,0.16,0.02
			c0.06,0.02,0.09,0.07,0.1,0.15l0.08,1c0.01,0.08-0.01,0.14-0.05,0.2c-0.04,0.06-0.09,0.09-0.14,0.1
			c-0.72,0.09-1.47,0.16-2.27,0.21c-0.79,0.06-1.58,0.1-2.36,0.13c-0.79,0.03-1.55,0.06-2.3,0.06c-0.74,0.01-1.43,0.01-2.07-0.01
			c-0.06,0-0.12-0.03-0.16-0.07c-0.04-0.05-0.06-0.11-0.06-0.17v-1.05C177.75,18.12,177.82,18.03,177.96,18.03"/>
		<path class="st0" d="M61.19,13.37c-0.23,0-0.42-0.19-0.42-0.42v-0.71c0-0.23,0.19-0.42,0.42-0.42h5.49c0.23,0,0.42,0.19,0.42,0.42
			v0.71c0,0.23-0.19,0.42-0.42,0.42h-1.41c-0.23,0-0.43,0.19-0.43,0.43v0.31c0,0.66,0.05,1.27,0.15,1.82
			c0.1,0.55,0.27,1.07,0.5,1.56c0.24,0.48,0.54,0.94,0.9,1.39c0.36,0.45,1.08,1.1,1.08,1.1c0.17,0.16,0.19,0.43,0.04,0.61
			l-0.63,0.74c-0.27-0.17-0.55-0.4-0.84-0.68c-0.29-0.28-0.56-0.58-0.82-0.88c-0.26-0.3-0.49-0.61-0.69-0.92
			c-0.2-0.31-0.37-0.6-0.49-0.87c-0.11,0.27-0.27,0.57-0.47,0.89c-0.2,0.33-0.44,0.65-0.7,0.96c-0.27,0.33-0.56,0.65-0.87,0.96
			c-0.31,0.3-0.59,0.53-0.59,0.53c-0.18,0.14-0.47,0.13-0.64-0.03l-0.79-0.75c0.63-0.53,1.15-1.04,1.56-1.55
			c0.42-0.51,0.74-1.04,0.97-1.59c0.21-0.48,0.36-0.98,0.44-1.5c0.08-0.52,0.11-1.3,0.11-1.3c0.01-0.23,0.02-0.6,0.02-0.81
			c0-0.21-0.19-0.39-0.43-0.39H61.19z"/>
		<path class="st0" d="M77.76,12.32c-0.23,0-0.43-0.19-0.43-0.42v-0.64c0-0.23,0.19-0.42,0.43-0.42h8.55c0.23,0,0.43,0.19,0.43,0.42
			v0.64c0,0.23-0.19,0.42-0.43,0.42h-3.29c0.06,0.47,0.2,0.9,0.42,1.28c0.22,0.39,0.5,0.74,0.86,1.05c0.39,0.35,0.86,0.66,1.4,0.94
			c0.55,0.28,1.39,0.61,1.39,0.61c0.22,0.08,0.29,0.31,0.16,0.51l-0.6,0.88c-0.43-0.12-0.87-0.29-1.32-0.51
			c-0.45-0.21-0.89-0.46-1.3-0.72c-0.42-0.28-0.81-0.58-1.14-0.91c-0.34-0.33-0.61-0.65-0.79-0.96c-0.17,0.29-0.4,0.57-0.69,0.85
			c-0.29,0.28-0.63,0.55-1,0.81c-0.45,0.3-0.93,0.58-1.43,0.83c-0.5,0.25-1.08,0.46-1.08,0.46c-0.22,0.08-0.52-0.01-0.65-0.2
			l-0.64-0.87c0.71-0.25,1.37-0.54,1.95-0.85c0.58-0.31,1.08-0.67,1.48-1.07c0.3-0.3,0.54-0.63,0.73-0.99
			c0.18-0.36,0.25-0.73,0.25-0.73c0.04-0.23-0.11-0.42-0.35-0.42H77.76z"/>
		<path class="st0" d="M136.66,12.32c-0.23,0-0.42-0.19-0.42-0.42v-0.64c0-0.23,0.19-0.42,0.42-0.42h8.56
			c0.23,0,0.43,0.19,0.43,0.42v0.64c0,0.23-0.19,0.42-0.43,0.42h-3.29c0.06,0.47,0.2,0.9,0.42,1.28c0.22,0.39,0.5,0.74,0.86,1.05
			c0.39,0.35,0.86,0.66,1.4,0.94c0.55,0.28,1.39,0.61,1.39,0.61c0.22,0.08,0.29,0.31,0.16,0.51l-0.6,0.88
			c-0.43-0.12-0.87-0.29-1.32-0.51c-0.46-0.21-0.89-0.46-1.3-0.72c-0.43-0.28-0.81-0.58-1.15-0.91c-0.34-0.33-0.6-0.65-0.78-0.96
			c-0.17,0.29-0.4,0.57-0.69,0.85c-0.29,0.28-0.63,0.55-1,0.81c-0.45,0.3-0.93,0.58-1.43,0.83c-0.51,0.25-1.09,0.46-1.09,0.46
			c-0.22,0.08-0.51-0.01-0.65-0.2l-0.64-0.87c0.71-0.25,1.37-0.54,1.95-0.85c0.58-0.31,1.08-0.67,1.48-1.07
			c0.3-0.3,0.55-0.63,0.73-0.99c0.18-0.36,0.25-0.73,0.25-0.73c0.04-0.23-0.11-0.42-0.35-0.42H136.66z"/>
		<path class="st0" d="M98.17,24.15c-0.38,0.37-0.85,0.56-1.39,0.56c-0.54,0-0.98-0.19-1.35-0.56c-0.37-0.38-0.55-0.83-0.55-1.36
			c0-0.54,0.19-1,0.57-1.38c0.38-0.37,0.84-0.56,1.38-0.56c0.55,0,1,0.19,1.37,0.56c0.37,0.38,0.55,0.84,0.55,1.38
			C98.74,23.32,98.55,23.78,98.17,24.15 M99.41,20.34c-0.71-0.67-1.58-1.01-2.61-1.01c-1.01,0-1.88,0.34-2.6,1.01
			c-0.72,0.67-1.08,1.49-1.08,2.45c0,0.95,0.36,1.76,1.08,2.43c0.72,0.67,1.58,1.01,2.6,1.01c1.03,0,1.89-0.34,2.61-1.01
			c0.71-0.67,1.07-1.48,1.07-2.43C100.48,21.83,100.13,21.02,99.41,20.34"/>
		<path class="st0" d="M94.79,17.27c-0.31,0.3-0.68,0.45-1.12,0.45c-0.43,0-0.79-0.15-1.09-0.45c-0.3-0.31-0.44-0.67-0.44-1.1
			c0-0.43,0.15-0.8,0.46-1.11c0.31-0.3,0.68-0.45,1.11-0.45c0.44,0,0.81,0.15,1.11,0.45c0.29,0.3,0.44,0.67,0.44,1.11
			C95.25,16.6,95.1,16.96,94.79,17.27 M95.9,14.09c-0.6-0.57-1.34-0.86-2.21-0.86c-0.86,0-1.59,0.29-2.2,0.86
			c-0.61,0.57-0.91,1.27-0.91,2.08c0,0.81,0.3,1.49,0.91,2.07c0.61,0.57,1.35,0.85,2.2,0.85c0.87,0,1.61-0.29,2.21-0.85
			c0.61-0.58,0.91-1.26,0.91-2.07C96.81,15.36,96.51,14.67,95.9,14.09"/>
		<path class="st0" d="M112.48,24.22c-0.39,0.38-0.87,0.58-1.41,0.58c-0.55,0-1.01-0.19-1.39-0.58c-0.38-0.38-0.56-0.84-0.56-1.37
			c0-0.55,0.2-1.01,0.59-1.39c0.39-0.38,0.86-0.58,1.41-0.58c0.56,0,1.02,0.19,1.39,0.58c0.37,0.38,0.56,0.84,0.56,1.39
			C113.07,23.38,112.87,23.84,112.48,24.22 M113.74,20.36c-0.73-0.68-1.61-1.02-2.65-1.02c-1.04,0-1.92,0.34-2.65,1.02
			c-0.73,0.69-1.1,1.52-1.1,2.49c0,0.97,0.37,1.79,1.1,2.48c0.73,0.68,1.61,1.02,2.65,1.02c1.04,0,1.92-0.34,2.65-1.02
			c0.73-0.69,1.1-1.51,1.1-2.48C114.84,21.87,114.47,21.04,113.74,20.36"/>
		<path class="st0" d="M127.28,15.22c-0.42,0.42-0.92,0.63-1.51,0.63c-0.58,0-1.08-0.21-1.49-0.63c-0.42-0.42-0.62-0.92-0.62-1.5
			c0-0.59,0.21-1.09,0.62-1.51c0.41-0.42,0.91-0.62,1.49-0.62c0.59,0,1.09,0.21,1.51,0.62c0.41,0.42,0.62,0.92,0.62,1.51
			C127.9,14.3,127.7,14.8,127.28,15.22 M128.51,11.09c-0.76-0.73-1.68-1.09-2.76-1.09c-1.08,0-2,0.36-2.76,1.09
			c-0.76,0.72-1.14,1.6-1.14,2.63c0,1.03,0.38,1.9,1.14,2.63c0.76,0.72,1.68,1.09,2.76,1.09c1.08,0,2-0.37,2.76-1.09
			c0.76-0.73,1.14-1.6,1.14-2.63C129.65,12.69,129.27,11.81,128.51,11.09"/>
	</g>
	<path class="st0" d="M38.56,24.11c0.24,0.77,0.93,1.53,2.03,1.53c1.06,0,1.78-0.76,2.02-1.53l1.1-3.5
		c-0.94,0.5-1.98,0.97-3.12,1.36l0,0l-3.67-11.7c-0.19-0.61-0.65-1.52-1.98-1.52c-1.21,0-1.76,0.93-1.87,1.52
		c0,0-1.32,7.17-2.16,11.71c0.82,0.07,1.69,0.1,2.6,0.07l1.63-8.87L38.56,24.11z M8.8,8.75c-0.5,0-0.91,0.41-0.91,0.91v11.16
		c0,0.77-0.54,1.97-2.04,1.97c-0.6,0-1.45-0.38-1.8-1.33C3.93,21.11,3.49,21,3.15,21.14c0,0-1.91,0.81-1.91,0.81
		c0.47,1.92,2.25,3.69,4.64,3.69c2.9,0,4.86-2.16,4.86-5.11V8.75H8.8z M30.23,25.63l2.24,0c0.17,0,0.4-0.15,0.45-0.37l0.41-2.25
		c-0.83-0.04-1.68-0.13-2.56-0.29C30.45,24.44,30.23,25.63,30.23,25.63 M46.04,13.17l0.62,3.37c0.74-0.71,1.47-1.49,2.17-2.37
		l-0.72-3.9C48,9.65,47.38,8.75,46.16,8.75c-1.09,0-1.65,0.74-1.9,1.52L41.1,20.33c1.1-0.5,2.2-1.12,3.29-1.9L46.04,13.17z
		 M47.01,18.45l1.26,6.81c0,0,0.1,0.38,0.47,0.38h2.22l-1.72-9.3C48.89,16.76,48.14,17.55,47.01,18.45 M54.68,3.43L54.23,0.9
		l-0.84,2.62l-1.44,1.12l1.07,0.07l-1.19,1.73l1.86-1.34l0.75,2.17l0.19-2.64l1.4-0.05L54.68,3.43z M24.06,20.36
		c1.2,0.63,2.38,1.13,3.52,1.53l1.51,3.75h-2.7c-0.26,0-0.4-0.12-0.5-0.37L20.95,12.8l-4.96,12.54c-0.07,0.18-0.2,0.3-0.53,0.3
		h-2.64l6.16-15.36c0.25-0.62,0.6-1.52,2.08-1.52c1.24,0,1.63,0.97,1.85,1.52l4.48,11.15C25.34,20.94,24.06,20.36,24.06,20.36"/>
</g>
</svg>
