<?xml version="1.0" encoding="utf-8"?>
<!-- Generator: Adobe Illustrator 27.5.0, SVG Export Plug-In . SVG Version: 6.00 Build 0)  -->
<svg version="1.1" id="레이어_1" xmlns="http://www.w3.org/2000/svg" xmlns:xlink="http://www.w3.org/1999/xlink" x="0px"
	 y="0px" viewBox="0 0 18.98 12.2" style="enable-background:new 0 0 18.98 12.2;" xml:space="preserve">
<style type="text/css">
	.st0{fill:none;}
	.st1{fill:#FCC800;}
	.st2{fill:#D8E698;}
	.st3{fill:#F9E600;}
	.st4{fill:#F8B500;}
	.st5{fill:#FFFBC7;}
	.st6{fill:#F08300;}
	.st7{fill:#C9E6DA;}
	.st8{fill:#6DC1A1;}
	.st9{fill:#38A1DB;}
	.st10{fill:#BBE2EE;}
	.st11{fill:#93D2D3;}
</style>
<rect x="-1160.27" y="-847.92" class="st0" width="1984.25" height="1984.25"/>
<polygon class="st1" points="18.75,5.81 15.85,0.14 15.34,4.68 "/>
<polygon class="st2" points="15.34,4.68 15.14,6.55 18.75,5.81 "/>
<polygon class="st3" points="15.34,4.68 15.85,0.13 11.52,3.42 "/>
<polygon class="st4" points="8.71,2.49 9.98,4.59 11.52,3.42 "/>
<polygon class="st5" points="11.52,3.42 9.99,4.59 11.62,7.28 15.14,6.55 15.34,4.68 "/>
<polygon class="st6" points="11.52,3.42 15.85,0.13 8.71,2.49 "/>
<polygon class="st7" points="11.62,7.28 14.53,12.06 15.14,6.55 "/>
<polygon class="st8" points="15.14,6.55 14.53,12.06 18.75,5.81 "/>
<polygon class="st9" points="8.71,2.49 8.71,2.49 0.23,5.28 1.09,7.62 4.5,8.75 9.98,4.59 "/>
<polygon class="st10" points="9.99,4.59 4.5,8.75 11.62,7.28 "/>
<polygon class="st11" points="4.5,8.75 14.53,12.06 11.62,7.28 "/>
</svg>
